<?xml version="1.0" encoding="UTF-8"?>
<svg width="270px" height="261px" viewBox="0 0 270 261" version="1.1" xmlns="http://www.w3.org/2000/svg" xmlns:xlink="http://www.w3.org/1999/xlink">
    <title>编组 35</title>
    <defs>
        <filter x="0.0%" y="0.0%" width="100.0%" height="100.0%" filterUnits="objectBoundingBox" id="filter-1">
            <feGaussianBlur stdDeviation="0" in="SourceGraphic"></feGaussianBlur>
        </filter>
        <filter x="-3.1%" y="-3.6%" width="106.2%" height="106.6%" filterUnits="objectBoundingBox" id="filter-2">
            <feGaussianBlur stdDeviation="0.900102284" in="SourceGraphic"></feGaussianBlur>
        </filter>
        <filter x="-13.3%" y="-15.3%" width="126.7%" height="130.0%" filterUnits="objectBoundingBox" id="filter-3">
            <feGaussianBlur stdDeviation="8.10092056" in="SourceGraphic"></feGaussianBlur>
        </filter>
        <filter x="-13.3%" y="-15.3%" width="126.7%" height="130.0%" filterUnits="objectBoundingBox" id="filter-4">
            <feGaussianBlur stdDeviation="7.2908285" in="SourceGraphic"></feGaussianBlur>
        </filter>
        <filter x="-15.1%" y="-15.1%" width="130.2%" height="130.2%" filterUnits="objectBoundingBox" id="filter-5">
            <feGaussianBlur stdDeviation="6.2344747" in="SourceGraphic"></feGaussianBlur>
        </filter>
        <circle id="path-6" cx="62.0561464" cy="62.0561464" r="61.156782"></circle>
        <filter x="-29.8%" y="-29.8%" width="159.7%" height="159.7%" filterUnits="objectBoundingBox" id="filter-7">
            <feGaussianBlur stdDeviation="36.5" in="SourceAlpha" result="shadowBlurInner1"></feGaussianBlur>
            <feOffset dx="0" dy="0" in="shadowBlurInner1" result="shadowOffsetInner1"></feOffset>
            <feComposite in="shadowOffsetInner1" in2="SourceAlpha" operator="arithmetic" k2="-1" k3="1" result="shadowInnerInner1"></feComposite>
            <feColorMatrix values="0 0 0 0 0.109695968   0 0 0 0 0   0 0 0 0 1  0 0 0 0.920100285 0" type="matrix" in="shadowInnerInner1"></feColorMatrix>
        </filter>
        <linearGradient x1="50%" y1="0%" x2="50%" y2="82.7686979%" id="linearGradient-8">
            <stop stop-color="#00FFF4" offset="0%"></stop>
            <stop stop-color="#66FFFF" offset="23.3599043%"></stop>
            <stop stop-color="#66FFFF" stop-opacity="0" offset="100%"></stop>
        </linearGradient>
        <path d="M177.091887,184.631564 C198.51181,165.232916 211.967749,137.196818 211.967749,106.016936 C211.967749,47.4653991 164.517152,0 105.983875,0 C47.4505969,0 0,47.4653991 0,106.016936 C0,137.198694 13.4575583,165.23629 34.8797293,184.635066" id="path-9"></path>
    </defs>
    <g id="页面-2" stroke="none" stroke-width="1" fill="none" fill-rule="evenodd">
        <g id="编组-34" transform="translate(10.402606, 10.402606)">
            <g id="编组-5备份-6">
                <g id="编组">
                    <circle id="椭圆形" fill-opacity="0" fill="#0E5FFF" filter="url(#filter-1)" cx="125" cy="125" r="125"></circle>
                    <path d="M197.38712,205.45774 C219.370726,185.531636 233.180768,156.733227 233.180768,124.705554 C233.180768,64.561981 184.481471,15.8059819 124.407844,15.8059819 C64.3342171,15.8059819 15.6349202,64.561981 15.6349202,124.705554 C15.6349202,156.735154 29.4466248,185.535102 51.4325372,205.461336" id="路径" stroke="#0E5FFF" stroke-width="8.10092056" filter="url(#filter-2)"></path>
                    <path d="M195.515856,202.668785 C216.93578,183.270138 230.391719,155.234039 230.391719,124.054158 C230.391719,65.5026205 182.941122,18.0372214 124.407844,18.0372214 C65.8745665,18.0372214 18.4239696,65.5026205 18.4239696,124.054158 C18.4239696,155.235916 31.8815279,183.273512 53.3036989,202.672287" id="路径" stroke="#0056FF" stroke-width="7.89320465" filter="url(#filter-3)"></path>
                    <path d="M188.405055,193.744177 C207.682986,176.279533 219.793331,151.038574 219.793331,122.967261 C219.793331,70.2531883 177.087794,27.5199891 124.407844,27.5199891 C71.7278943,27.5199891 29.022357,70.2531883 29.022357,122.967261 C29.022357,151.040264 41.1341595,176.282571 60.4141134,193.747329" id="路径" stroke="#0056FF" stroke-width="7.10388418" filter="url(#filter-4)"></path>
                    <path d="M198.213719,205.971474 C220.422797,185.864412 234.374481,156.80447 234.374481,124.485938 C234.374481,63.7961707 185.175704,14.5973939 124.485938,14.5973939 C63.7961707,14.5973939 14.5973939,63.7961707 14.5973939,124.485938 C14.5973939,156.806415 28.550757,185.867909 50.7621659,205.975104" id="路径" stroke="#32C5FF" stroke-width="2.51428571"></path>
                    <g id="编组-9" transform="translate(32.126569, 33.295181)">
                        <path d="M154.358648,161.151067 C173.028901,144.21944 184.757505,119.748829 184.757505,92.534245 C184.757505,41.4289926 143.398129,0 92.3787525,0 C41.3593763,0 0,41.4289926 0,92.534245 C0,119.750467 11.7300151,144.222385 30.4022277,161.154123" id="路径"></path>
                    </g>
                    <g id="编组-8" transform="translate(63.555140, 63.555140)">
                        <path d="M61.8313053,0 C95.9797923,0 123.662611,27.6828183 123.662611,61.8313053 C123.662611,95.9797923 95.9797923,123.662611 61.8313053,123.662611 C27.6828183,123.662611 0,95.9797923 0,61.8313053 C0,27.6828183 27.6828183,0 61.8313053,0 Z M61.4448596,5.41023921 C30.4977933,5.41023921 5.41023921,30.4977933 5.41023921,61.4448596 C5.41023921,92.391926 30.4977933,117.47948 61.4448596,117.47948 C92.391926,117.47948 117.47948,92.391926 117.47948,61.4448596 C117.47948,30.4977933 92.391926,5.41023921 61.4448596,5.41023921 Z" id="形状结合" fill="#0E5FFF" filter="url(#filter-5)"></path>
                        <g id="椭圆形">
                            <use fill="#000A25" fill-rule="evenodd" xlink:href="#path-6"></use>
                            <use fill="black" fill-opacity="1" filter="url(#filter-7)" xlink:href="#path-6"></use>
                            <circle stroke="#0E5FFF" stroke-width="4.29068408" stroke-linejoin="square" cx="62.0561464" cy="62.0561464" r="59.0114399"></circle>
                        </g>
                        <circle id="椭圆形" stroke="url(#linearGradient-8)" stroke-width="8.37255256" cx="62.0561464" cy="62.0561464" r="61.156782"></circle>
                    </g>
                </g>
                <g id="刻度" opacity="0.58564226" transform="translate(18.423970, 18.037221)">
                    <g id="编组-4">
                        <mask id="mask-10" fill="white">
                            <use xlink:href="#path-9"></use>
                        </mask>
                        <g id="蒙版"></g>
                        <g id="编组" mask="url(#mask-10)" fill="#02004D">
                            <g transform="translate(-2.789049, -4.462479)">
                                <path d="M111.459727,14.2610786 L110.924787,14.2476912 L111.251664,0.306349179 L111.828997,0.320294425 L111.459727,14.2610786 Z M66.6341259,23.9095159 L60.5283391,11.3716235 L61.0733193,11.1088951 L67.0971081,23.6858341 L66.6341259,23.9095159 Z M155.183095,26.1268101 L154.703379,25.8646394 L161.410485,13.6374472 L161.906378,13.9096584 L155.183095,26.1268101 Z M31.7001674,52.8062982 L20.529467,44.4586735 L20.8914856,43.9772836 L32.0080784,52.3968657 L31.7001674,52.8062982 Z M188.636626,56.7310484 L188.339872,56.2926098 L199.866455,48.4436672 L200.19612,48.9289618 L188.636626,56.7310484 Z M13.8664281,94.4451313 L0.108605581,92.1659202 L0.210126977,91.5696214 L13.9512152,93.941429 L13.8664281,94.4451313 Z M204.355151,99.2311399 L204.296581,98.7374782 L218.135843,97.0227707 L218.208916,97.6374771 L204.355151,99.2311399 Z M3.81915681,143.948526 C3.75556649,143.751061 3.69309178,143.552481 3.63117489,143.354458 L16.9438652,139.201006 L17.0933582,139.673471 L3.81915681,143.948526 Z M211.919052,149.14564 L198.866859,144.23524 L199.04759,143.749945 L212.127115,148.588388 L211.919052,149.14564 Z M30.8701463,188.24086 L30.4467686,187.815251 L40.3685327,178.01509 L40.7311091,178.380455 L30.8701463,188.24086 Z M182.6887,192.032294 L173.330324,181.693288 L173.711308,181.346888 L183.132716,191.62844 L182.6887,192.032294 Z" id="Fill-1" stroke="#02004D" stroke-width="1"></path>
                                <path d="M99.0982696,10.5003245 L98.5739283,4.94732727 L99.1378741,4.89433533 L99.6443655,10.4495638 L99.0982696,10.5003245 Z M123.455037,11.1049904 L122.918982,11.0280126 L123.687086,5.5034637 L124.255495,5.58434613 L123.455037,11.1049904 Z M87.3106315,12.3371924 L86.1319793,6.88515874 L86.6864423,6.76634524 L87.8466868,12.2222835 L87.3106315,12.3371924 Z M135.131114,13.5325789 L134.60231,13.3908952 L136.039228,8.00133629 L136.588113,8.14859809 L135.131114,13.5325789 Z M75.8275576,15.5663537 L73.9906897,10.2995129 L74.5373434,10.111531 L76.3407427,15.389528 L75.8275576,15.5663537 Z M146.433457,17.3374 L145.92585,17.1332416 L148.000345,11.9550926 L148.527475,12.1676182 L146.433457,17.3374 Z M54.4071009,26.0079966 L51.3854449,21.3196047 L51.8646036,21.0122514 L54.8684097,25.7129152 L54.4071009,26.0079966 Z M167.281043,28.8271676 L166.842604,28.5142363 L170.067303,23.9636234 L170.535306,24.2971937 L167.281043,28.8271676 Z M44.7815339,33.0570399 L41.2221491,28.7624617 L41.6667236,28.3965384 L45.1987757,32.7139868 L44.7815339,33.0570399 Z M176.546265,36.3486759 L176.142968,35.9810792 L179.88643,31.844919 L180.307577,32.2281344 L176.546265,36.3486759 Z M36.0529251,41.1943702 L32.0121504,37.3499446 L32.4098689,36.9349341 L36.4266577,40.8044611 L36.0529251,41.1943702 Z M184.857074,44.9054792 L184.502307,44.4960468 L188.707636,40.831236 L189.084157,41.265212 L184.857074,44.9054792 Z M21.7729925,60.258638 L16.9462637,57.4606637 L17.2324202,56.9703488 L22.0468772,59.7867308 L21.7729925,60.258638 Z M198.174785,64.6636625 L197.924886,64.1794835 L202.874333,61.6074223 L203.137061,62.1167027 L198.174785,64.6636625 Z M16.4314052,70.9150377 L11.306806,68.7133621 L11.5332768,68.1901365 L16.646162,70.4191447 L16.4314052,70.9150377 Z M202.978643,75.5900422 L202.787872,75.0796461 L208.007857,73.1122507 L208.209226,73.6510951 L202.978643,75.5900422 Z M12.4029024,82.129805 L7.0445808,80.5785358 L7.21025033,80.0184947 L12.5529532,81.6199668 L12.4029024,82.129805 Z M206.439296,87.0056211 L206.314346,86.4885313 L211.729007,85.1475564 L211.866228,85.7148491 L206.439296,87.0056211 Z M8.47870997,105.619736 L2.90563159,105.374858 L2.9340799,104.793062 L8.50436922,105.087028 L8.47870997,105.619736 Z M214.755683,110.675725 L209.177584,110.675725 L209.1787,110.354426 L209.178142,110.134092 L214.756241,110.100623 L214.756799,110.385664 L214.755683,110.675725 Z M3.05735588,117.964626 L3.01775138,117.382831 L8.58357822,117.023601 L8.62039367,117.554078 L3.05735588,117.964626 Z M213.983116,123.250433 L208.44518,122.580503 L208.50877,122.042774 L214.050053,122.679793 L213.983116,123.250433 Z M4.68783412,130.44618 L4.58185024,129.886697 L10.0651212,128.861442 L10.1677582,129.402518 L4.68783412,130.44618 Z M211.724544,135.643852 L206.307653,134.314034 L206.433718,133.79025 L211.859534,135.086043 L211.724544,135.643852 Z M12.348237,154.408576 L12.1122834,153.889813 L17.1961626,151.592194 L17.4226334,152.091434 L12.348237,154.408576 Z M202.86987,159.172273 L197.920423,156.599096 L198.174785,156.107665 L203.127578,158.674706 L202.86987,159.172273 Z M18.2671575,165.532978 L17.9698448,165.042106 L22.7441395,162.158229 L23.0263913,162.621769 L18.2671575,165.532978 Z M196.405412,169.977607 L191.794555,166.838811 L192.100793,166.386985 L196.724479,169.507374 L196.405412,169.977607 Z M25.4629048,175.868637 L25.1114846,175.420716 L29.5086997,171.987954 L29.8456169,172.418026 L25.4629048,175.868637 Z M188.704289,179.943996 L184.49896,176.279186 L184.857074,175.866964 L189.077464,179.514483 L188.704289,179.943996 Z" id="Fill-3" stroke="none" opacity="0.580614362"></path>
                            </g>
                        </g>
                    </g>
                </g>
            </g>
            <text id="0" transform="translate(59.713931, 185.119576) rotate(-360.000000) translate(-59.713931, -185.119576) " font-family="PingFangSC-Medium, PingFang SC" font-size="10" font-weight="400" letter-spacing="-0.00499999702" fill="#FFFFFF">
                <tspan x="56.716431" y="189.119576">0</tspan>
            </text>
            <text id="20" transform="translate(42.225965, 151.854537) rotate(-360.000000) translate(-42.225965, -151.854537) " font-family="PingFangSC-Medium, PingFang SC" font-size="10" font-weight="400" letter-spacing="-0.00499999702" fill="#FFFFFF">
                <tspan x="36.2309653" y="155.854537">20</tspan>
            </text>
            <text id="40" transform="translate(39.225965, 109.854537) rotate(-360.000000) translate(-39.225965, -109.854537) " font-family="PingFangSC-Medium, PingFang SC" font-size="10" font-weight="400" letter-spacing="-0.00499999702" fill="#FFFFFF">
                <tspan x="33.2309653" y="113.854537">40</tspan>
            </text>
            <text id="60" transform="translate(51.225965, 74.854537) rotate(-360.000000) translate(-51.225965, -74.854537) " font-family="PingFangSC-Medium, PingFang SC" font-size="10" font-weight="400" letter-spacing="-0.00499999702" fill="#FFFFFF">
                <tspan x="45.2309653" y="78.8545367">60</tspan>
            </text>
            <text id="80" transform="translate(85.225965, 46.854537) rotate(-360.000000) translate(-85.225965, -46.854537) " font-family="PingFangSC-Medium, PingFang SC" font-size="10" font-weight="400" letter-spacing="-0.00499999702" fill="#FFFFFF">
                <tspan x="79.2309653" y="50.8545367">80</tspan>
            </text>
            <text id="100" transform="translate(125.713931, 33.119576) rotate(-360.000000) translate(-125.713931, -33.119576) " font-family="PingFangSC-Medium, PingFang SC" font-size="10" font-weight="400" letter-spacing="-0.00499999702" fill="#FFFFFF">
                <tspan x="117.681431" y="37.1195765">100</tspan>
            </text>
            <text id="120" transform="translate(169.225965, 46.854537) rotate(-360.000000) translate(-169.225965, -46.854537) " font-family="PingFangSC-Semibold, PingFang SC" font-size="10" font-weight="500" letter-spacing="-0.00499999702" fill="#FFFFFF">
                <tspan x="161.183465" y="50.8545367">120</tspan>
            </text>
            <text id="140" transform="translate(195.225965, 74.854537) rotate(-360.000000) translate(-195.225965, -74.854537) " font-family="PingFangSC-Semibold, PingFang SC" font-size="10" font-weight="500" letter-spacing="-0.00499999702" fill="#FFFFFF">
                <tspan x="187.183465" y="78.8545367">140</tspan>
            </text>
            <text id="160" transform="translate(203.225965, 109.854537) rotate(-360.000000) translate(-203.225965, -109.854537) " font-family="PingFangSC-Semibold, PingFang SC" font-size="10" font-weight="500" letter-spacing="-0.00499999702" fill="#FFFFFF">
                <tspan x="195.183465" y="113.854537">160</tspan>
            </text>
            <text id="180" transform="translate(203.225965, 151.854537) rotate(-360.000000) translate(-203.225965, -151.854537) " font-family="PingFangSC-Semibold, PingFang SC" font-size="10" font-weight="500" letter-spacing="-0.00499999702" fill="#FFFFFF">
                <tspan x="195.183465" y="155.854537">180</tspan>
            </text>
            <text id="200%" transform="translate(188.713931, 185.119576) rotate(-360.000000) translate(-188.713931, -185.119576) " font-family="PingFangSC-Semibold, PingFang SC" font-size="10" font-weight="500" letter-spacing="-0.00499999702" fill="#FFFFFF">
                <tspan x="174.743931" y="189.119576">200%</tspan>
            </text>
        </g>
    </g>
</svg>